<?xml version="1.0" encoding="UTF-8" standalone="no"?>
<!-- Created with Inkscape (http://www.inkscape.org/) -->

<svg
   width="1080"
   height="1920"
   viewBox="0 0 285.75001 508"
   version="1.1"
   id="svg5"
   inkscape:version="1.1.1 (c3084ef, 2021-09-22)"
   sodipodi:docname="GatoDisfraz.svg"
   xmlns:inkscape="http://www.inkscape.org/namespaces/inkscape"
   xmlns:sodipodi="http://sodipodi.sourceforge.net/DTD/sodipodi-0.dtd"
   xmlns="http://www.w3.org/2000/svg"
   xmlns:svg="http://www.w3.org/2000/svg">
  <sodipodi:namedview
     id="namedview7"
     pagecolor="#ffffff"
     bordercolor="#cccccc"
     borderopacity="1"
     inkscape:pageshadow="0"
     inkscape:pageopacity="1"
     inkscape:pagecheckerboard="0"
     inkscape:document-units="px"
     showgrid="false"
     units="px"
     inkscape:zoom="0.26313049"
     inkscape:cx="283.12949"
     inkscape:cy="1134.4181"
     inkscape:window-width="1440"
     inkscape:window-height="847"
     inkscape:window-x="0"
     inkscape:window-y="25"
     inkscape:window-maximized="0"
     inkscape:current-layer="layer1" />
  <defs
     id="defs2">
    <filter
       inkscape:collect="always"
       style="color-interpolation-filters:sRGB"
       id="filter17643"
       x="-0.1663933"
       y="-1.5225126"
       width="1.3327866"
       height="4.0450251">
      <feGaussianBlur
         inkscape:collect="always"
         stdDeviation="1.2764301"
         id="feGaussianBlur17645" />
    </filter>
    <filter
       inkscape:collect="always"
       style="color-interpolation-filters:sRGB"
       id="filter178097"
       x="-0.028320005"
       y="-0.020823528"
       width="1.05664"
       height="1.0416471">
      <feGaussianBlur
         inkscape:collect="always"
         stdDeviation="0.26071181"
         id="feGaussianBlur178099" />
    </filter>
    <filter
       inkscape:collect="always"
       style="color-interpolation-filters:sRGB"
       id="filter178101"
       x="-0.025359679"
       y="-0.022778701"
       width="1.0507194"
       height="1.0455574">
      <feGaussianBlur
         inkscape:collect="always"
         stdDeviation="0.34088687"
         id="feGaussianBlur178103" />
    </filter>
    <filter
       inkscape:collect="always"
       style="color-interpolation-filters:sRGB"
       id="filter204284"
       x="-0.47249231"
       y="-0.47687492"
       width="1.9449846"
       height="1.9537498">
      <feGaussianBlur
         inkscape:collect="always"
         stdDeviation="0.21430913"
         id="feGaussianBlur204286" />
    </filter>
  </defs>
  <g
     inkscape:label="Capa 1"
     inkscape:groupmode="layer"
     id="layer1"
     style="display:inline;mix-blend-mode:normal">
    <path
       id="path959"
       style="opacity:1;mix-blend-mode:normal;fill:#fefcf0;fill-opacity:1;stroke:#1b1b12;stroke-width:3.17499;stroke-linecap:round;stroke-linejoin:round;stroke-opacity:1;paint-order:stroke fill markers"
       d="m 143.35857,183.91711 c -42.53739,-7e-5 -77.020314,25.45261 -77.018552,56.84925 0.0021,6.82407 1.668939,13.5921 4.92063,19.98018 l -0.80304,-0.0465 c -5.71578,-0.65655 -7.07514,4.4979 -7.43523,10.98228 l 0.5085,16.21917 38.351162,17.4036 c -13.188752,17.97129 -19.126982,56.44038 7.77006,79.23546 l 6.42132,-0.1674 0.1674,-20.61258 c 11.12742,2.73624 36.93696,1.96359 48.1521,0.5085 1.24908,7.73889 3.54483,12.52617 7.94058,17.56791 h 4.89894 c 9.19038,-27.69219 6.4821,-50.66508 0.50538,-82.78257 l 30.74853,-18.92289 c 0.80958,-3.43527 1.07739,-6.73587 0.65421,-9.86295 7.3339,-8.88939 11.22066,-19.09426 11.23653,-29.50209 0.002,-31.39664 -34.48116,-56.84932 -77.01855,-56.84925 z M 28.674088,339.30916 c -4.529217,1.35699 -3.698889,5.03871 -0.523986,10.59783 9.843405,6.41571 54.932076,5.35146 61.844286,1.96578 l -1.037389,-7.16464 c -12.0618,1.7007 -45.655607,0.37411 -60.282911,-5.39897 z"
       inkscape:label="pielGato"
       sodipodi:nodetypes="cccccccccccccccccccccccc" />
    <path
       id="path139882"
       style="opacity:1;mix-blend-mode:darken;fill:#e2e0cb;fill-opacity:1;stroke:none;stroke-width:0.264583px;stroke-linecap:round;stroke-linejoin:round;stroke-opacity:1;filter:url(#filter178097)"
       d="m 97.179621,268.18958 c 0.03186,0.36074 0.02884,0.95259 -0.443629,1.48144 0.994474,0.0722 1.511509,-0.20572 2.060001,-0.18918 0.677008,-0.13031 0.161355,-1.32032 0.161355,-1.32032 z m 4.478119,5.35831 c -0.003,-1.44661 0.0332,-2.95013 -0.19002,-4.08262 4.38003,0.4894 9.009,0.33752 11.88886,-0.32833 0.24474,0.80145 -0.17863,1.37883 -0.57837,1.9985 l 0.31943,2.92677 c -0.0543,0.16958 0.75954,0.51893 0.85345,0.0246 0.99766,-2.79088 1.00597,-4.72483 1.01862,-5.93572 -3.18099,-1.25986 -11.78015,0.0509 -15.138799,0.10433 -0.35791,1.09611 0.272579,3.64368 1.826829,5.29247 z m 17.17247,-17.91384 c -10e-6,2.2511 -4.46385,4.07598 -9.97029,4.07598 -5.50644,0 -9.970292,-1.82488 -9.970297,-4.07598 -8e-6,-2.25111 4.463847,-4.07599 9.970297,-4.07599 5.50645,0 9.9703,1.82488 9.97029,4.07599 z m -16.46764,-7.1782 c 3.23363,-0.53717 7.78387,-1.92191 9.60986,-1.32281 2.85859,0.16868 4.4562,1.44072 6.57517,2.25657 l -5.83595,-5.09673 -11.86643,3.6961 c -0.0957,0.2103 -0.57158,0.45517 1.51735,0.46687 z"
       inkscape:label="sombrasPiel"
       sodipodi:nodetypes="ccccccccccccccssssscccccc"
       transform="matrix(6,0,0,6,-506.84361,-1264.2364)" />
    <path
       id="path10921"
       style="fill:none;stroke:#000000;stroke-width:1.5875;stroke-linecap:round;stroke-linejoin:round;stroke-miterlimit:4;stroke-dasharray:none;stroke-opacity:1"
       d="m 148.14231,281.54794 c 12.7878,0.4248 22.70706,-2.73636 32.43516,-6.13638 m -41.52378,-27.29124 c 4.64862,9.47178 13.03038,4.55394 15.78912,2.4291 4.81698,4.1997 12.43602,4.45458 11.17386,-3.1578 m 22.83354,7.53018 c 4.21722,0.5502 8.64306,0.5784 12.1455,2.91492 m -12.1455,-11.17386 c 5.69226,-0.1626 11.38008,-0.3072 16.70172,1.01328 m -104.3922,4.08786 c -6.197702,0.72414 -11.529422,2.3142 -19.089212,1.67622 m 18.603392,-11.63556 c -6.370262,-0.0828 -12.483032,0.60672 -19.189892,-0.486"
       inkscape:label="trazosCaraGato" />
    <path
       id="path11215"
       style="opacity:0.94;fill:#f2130a;stroke-width:0.264583;stroke-linecap:round;stroke-linejoin:round;paint-order:stroke fill markers;filter:url(#filter17643)"
       inkscape:label="rubor"
       d="m 118.38632,250.30168 a 2.1129158,0.72532928 0 0 1 -2.11291,0.72533 2.1129158,0.72532928 0 0 1 -2.11292,-0.72533 2.1129158,0.72532928 0 0 1 2.11292,-0.72533 2.1129158,0.72532928 0 0 1 2.11291,0.72533 z m -14.51277,-0.34691 a 1.9490085,0.9398548 0 0 1 -1.94901,0.93986 1.9490085,0.9398548 0 0 1 -1.949011,-0.93986 1.9490085,0.9398548 0 0 1 1.949011,-0.93985 1.9490085,0.9398548 0 0 1 1.94901,0.93985 z"
       transform="matrix(6,0,0,6,-506.84361,-1264.2364)" />
    <path
       id="path9849"
       style="fill:#2d1106;fill-opacity:1;stroke:#101010;stroke-width:5.23875;stroke-linecap:round;stroke-linejoin:round;stroke-miterlimit:4;stroke-dasharray:none;stroke-opacity:1"
       d="m 103.95942,222.02332 25.30698,11.58069 z m 91.79286,1.28673 -22.30563,12.0117 z"
       inkscape:label="ojosGato" />
    <path
       id="path23283"
       style="opacity:1;fill:#666563;fill-opacity:1;stroke:#121a12;stroke-width:1.5875px;stroke-linecap:round;stroke-linejoin:round;stroke-opacity:1"
       d="m 48.393823,105.83506 c -3.644805,16.0005 -4.263549,83.81463 3.491262,103.35183 -5.336586,4.55145 -7.89267,11.88573 -9.773046,19.89336 6.153069,15.66624 13.194309,26.46126 20.739819,34.46922 -0.68625,8.6241 -1.54629,17.42094 -0.88989,24.70236 11.31201,7.01472 22.62393,14.26167 33.93594,16.53543 -5.52198,13.03434 -15.56703,26.07021 -5.3082,39.10452 19.477382,3.76032 76.390142,4.27593 93.305912,-0.5364 3.28638,-7.10787 2.49522,-26.05212 -4.8741,-40.51527 10.90284,1.08219 33.79158,-8.80315 29.46486,-22.70871 l 0.65421,-9.86295 c 6.23577,-1.84488 12.03495,-4.23204 15.51225,-9.525 l -2.35335,-48.38466 c 9.1065,-3.08532 24.3777,-49.87446 23.2761,-79.76568 -11.838,-0.66426 -61.48566,4.15491 -76.10388,6.53913 -4.59852,-4.32258 -25.00206,-8.99328 -41.32152,-3.92532 -3.03366,-1.26744 -0.39138,-3.40959 -11.50626,-1.56891 -8.75568,-8.61336 -41.902442,-25.40031 -68.250107,-27.80295 z M 166.05174,208.30012 c 20.11626,2.9085 29.36148,18.49905 42.16488,29.93928 l 0.9984,18.71202 c -8.70594,10.85124 -28.79691,15.60267 -44.40969,22.20639 -6.56442,4.5798 -13.68171,8.60763 -17.71365,15.71997 L 132.37011,281.40265 C 121.71774,278.86993 90.357748,267.9772 80.453878,247.65895 82.876378,229.31749 132.579,212.3254 166.05174,208.30012 Z M 69.645238,260.6101 c 0.37848,4.2e-4 0.75792,0.021 1.12863,0.0558 1.48272,0.1374 2.84952,0.50805 3.64938,0.81855 1.95618,1.40238 4.43118,5.8221 4.38732,9.34206 l -16.07655,-0.0651 0.40308,-5.59656 c 1.12575,-1.75302 2.36136,-3.17217 3.28044,-3.91605 0.95472,-0.46683 2.09232,-0.63996 3.2277,-0.63873 z m 139.495322,9.65847 c 1.50658,3.52785 -0.8807,9.86295 -0.65421,9.86295 -2.8908,-0.80388 -7.06821,-3.74424 -9.05367,-5.49747 1.38771,-1.85178 5.93886,-4.10748 9.70788,-4.36548 z"
       inkscape:label="disfraz"
       sodipodi:nodetypes="ccccccccccccccccccccccccccsccccccsscccc" />
    <path
       id="path165882"
       style="opacity:0.9;mix-blend-mode:darken;fill:#4c413b;fill-opacity:1;stroke:none;stroke-width:0.264583;stroke-linecap:round;stroke-linejoin:round;stroke-miterlimit:4;stroke-dasharray:none;stroke-opacity:1;filter:url(#filter178101)"
       d="m 99.615539,267.44643 c 0.205518,-0.91104 1.413171,-1.0368 2.023541,-1.44177 0.3135,-1.459 0.3594,-2.91013 1.88438,-4.40476 2.50024,-0.22141 4.96101,-0.15338 7.34911,0.44754 0.96127,-0.58295 1.95474,-1.00721 2.29799,-1.81005 0.93495,0.014 1.43518,-0.33218 1.65922,-0.80454 1.39515,0.38175 2.44933,0.0329 3.32123,-0.70664 l 0.0811,-1.7059 -3.29669,-0.314 -5.94616,3.14605 -5.86618,-0.32528 c -1.22688,0.29086 -2.50128,0.52894 -4.3812,0.0942 -0.753754,-0.1511 -1.507507,-0.46797 -2.261261,-0.91863 -0.411356,-0.63194 -0.423907,-1.632 -0.353325,-2.70881 l -1.149577,-0.007 -0.176734,2.76158 c 2.220707,0.69505 3.850952,1.78374 5.655987,2.7559 -1.407214,2.91195 -1.306442,4.42519 -0.841381,5.94211 M 118.5476,249.38961 c 0.84925,0.54225 1.69851,1.54015 2.54776,1.49284 0.11777,1.05428 0.0417,2.0077 0.15946,2.54806 -1.42114,-0.0102 -2.64842,1.38759 -4.06956,2.1158 2.89685,-1.80382 2.80838,-3.91123 1.36234,-6.1567 m -0.78225,-12.05293 c 3.31558,1.21286 3.07293,5.20528 3.35546,7.92906 1.69803,-3.31389 2.48943,-6.62779 3.49301,-9.94168 -1.64466,4.13805 -3.82136,3.99524 -6.84847,2.01262 z m -25.035456,-5.80663 c 0.919435,4.12606 0.495508,8.50782 0.73058,12.41895 l -1.107648,6.40976 c 1.072534,1.07863 1.970479,2.52742 2.554282,3.9913 -0.01568,-1.21714 0.04358,-2.03307 0.249967,-2.43596 0.59774,0.28343 1.035967,0.9457 1.334094,1.94071 0.221523,-0.89007 0.110117,-1.62511 0.9205,-2.04409 0.159299,-2.62782 2.848261,-2.81875 4.388841,-4.10077 -2.156612,0.45679 -4.233558,0.31611 -6.502041,1.61196 -0.11005,-1.31825 -0.232586,-2.41176 -0.282784,-4.80734 1.722987,-3.77893 2.860375,-7.67798 6.903965,-10.98089 -1.927401,1.28596 -4.526427,2.69734 -6.102594,4.21746 -0.553431,-2.38293 -1.812269,-4.31914 -3.087162,-6.22109 z"
       transform="matrix(6,0,0,6,-506.84361,-1264.2364)"
       inkscape:label="sombrasDisfraz" />
    <path
       style="opacity:0.9;fill:none;stroke:#070707;stroke-width:3.49251;stroke-linecap:round;stroke-linejoin:miter;stroke-miterlimit:4;stroke-dasharray:none;stroke-opacity:1;paint-order:markers stroke fill;filter:url(#filter204284)"
       d="m 209.31794,240.51212 c 0,0 2.07128,1.59613 4.78441,4.74044"
       id="path132974"
       sodipodi:nodetypes="cc"
       inkscape:label="trazosDisfraz2" />
    <path
       id="path77451"
       style="display:inline;opacity:1;fill:#eee17b;fill-opacity:1;stroke:#240c0b;stroke-width:1.5875px;stroke-linecap:butt;stroke-linejoin:miter;stroke-opacity:1"
       d="m 170.47467,177.37918 c 0.50963,-6.40784 7.66914,-9.20057 13.28946,-8.9287 8.37041,0.0294 16.45331,3.91107 22.43344,9.62813 3.6659,3.43826 3.71712,8.64141 4.0988,13.27313 -0.40315,5.28554 -5.12846,9.03582 -10.35731,7.72351 -8.69623,-1.26239 -17.67376,-4.03223 -24.29563,-10.05088 -3.18397,-3.0082 -5.15434,-7.24184 -5.16876,-11.64519 z m -76.150262,8.38356 c -0.93272,-7.75576 5.339134,-13.87434 11.772222,-17.00981 5.29175,-2.62065 10.94785,-5.01273 16.97522,-4.67541 6.63965,0.0441 14.26384,0.58733 19.12896,5.6843 1.7555,3.57939 4.34067,8.116 1.68135,11.9671 -4.59325,6.33626 -12.14034,9.88972 -19.52686,11.85742 -7.74403,1.29625 -15.95766,3.4163 -23.67512,0.91933 -3.758945,-1.25675 -6.055819,-4.907 -6.355772,-8.74293 z"
       inkscape:label="ojosDisfraz" />
    <path
       id="path115624"
       style="display:inline;opacity:1;fill:#4a290a;fill-opacity:1;stroke:none;stroke-width:2.01619;stroke-linecap:round;stroke-linejoin:round;stroke-miterlimit:4;stroke-dasharray:none;stroke-opacity:1;paint-order:stroke fill markers"
       inkscape:transform-center-x="0.045101928"
       inkscape:transform-center-y="-1.9096474"
       d="m 120.65916,168.70255 a 10.294307,3.2066022 88.809636 0 0 -2.96103,10.45206 10.294307,3.2066022 88.809636 0 0 3.44784,10.13271 10.294307,3.2066022 88.809636 0 0 2.96106,-10.45206 10.294307,3.2066022 88.809636 0 0 -3.44787,-10.13271 z m 69.75699,4.01835 a 10.308836,2.5117764 85.302667 0 0 -1.6557,10.49238 10.308836,2.5117764 85.302667 0 0 3.35175,10.05519 10.308836,2.5117764 85.302667 0 0 1.6557,-10.48926 10.308836,2.5117764 85.302667 0 0 -3.35175,-10.05831 z"
       inkscape:label="pupilaDisfraz" />
    <path
       id="path182944"
       style="fill:none;stroke:#000000;stroke-width:1.40229;stroke-linecap:butt;stroke-linejoin:miter;stroke-miterlimit:4;stroke-dasharray:none;stroke-opacity:1"
       d="m 78.810569,270.8265 c 2.568183,6.6616 2.437021,6.32138 2.057911,5.338 m -5.047802,-13.0917 c -0.86934,-5.4816 0.65325,-10.96326 1.80573,-16.44486 M 189.89097,285.0718 c -1.60707,5.53341 -2.09238,11.24577 -6.76696,17.42052 m -69.40472,33.38736 0.1512,-9.31752 c 7.54608,-1.77858 14.45844,-3.97962 15.75648,-9.92358 11.37756,1.33266 21.55998,1.07178 31.36146,0.303 0.1908,5.29428 6.67344,11.13594 11.74158,10.45386 l -0.1512,9.01446 M 95.897908,304.78726 c 2.80728,-3.57642 6.124082,-7.2381 10.451042,-8.8983 M 80.86848,276.1645 c 0.37848,3.1569 2.763268,8.93838 1.565128,15.24858 m 3.872039,41.01577 c 36.817773,7.40526 96.445383,5.68536 99.370443,-0.94794 m -41.1264,-33.89095 c 3.34116,-2.4729 3.09684,32.9616 2.31432,49.64988 M 80.868478,276.1645 c 22.755392,5.2314 45.090992,10.98762 63.681212,21.42546 8.0568,-2.08578 12.53976,-4.52892 15.32514,-7.14186 13.67214,-0.1536 29.77932,-6.15804 33.05046,-12.17604 m -130.208942,2.50482 c 6.97914,1.01568 13.28151,0.1704 18.15213,-4.61238 m -23.69481,-69.27318 c -0.50046,-7.0887 1.0221,-16.75482 4.00896,-21.2661 m 4.15704,76.88028 c -4.00032,-11.97456 -4.05828,-25.53528 -5.08086,-35.5272 m 86.648702,-34.28358 c 1.78092,3.47436 5.23104,4.53768 11.7606,1.15296 3.25842,3.60702 6.8208,3.26262 10.60764,0 m 22.23462,-44.53818 c -5.20152,-3.77682 -15.26496,-8.44446 -22.03866,-10.17726 m 37.1295,151.00786 c -1.51734,-2.367 -4.28154,-6.35026 -13.67592,-11.86804 l 6.50739,-3.63801"
       sodipodi:nodetypes="cccccccccccccccccccccccccccccccccccccc" />
    <path
       id="path135854"
       style="display:inline;fill:#666563;fill-opacity:1;stroke:#131313;stroke-width:1.5875;stroke-linecap:round;stroke-linejoin:round;stroke-miterlimit:4;stroke-dasharray:none;stroke-opacity:1"
       d="m 156.5217,292.99811 c 4.08873,0.0138 4.77714,-3.36002 3.35313,-2.55001 2.4438,4.81332 7.05906,20.90802 6.84318,27.9585 -1.5816,0.2784 -2.87082,0.042 -4.62786,-0.207 1.15332,-6.00726 -3.25965,-22.04495 -5.56845,-25.20149 z m -25.2588,-2.07201 c 1.04331,1.07582 3.77354,0.70998 3.30462,3.58938 l 1.76529,24.5786 c -0.73584,1.36284 -1.73022,2.31192 -3.3465,2.26614 0.225,-9.83442 -0.97797,-17.67602 -1.72341,-30.43412 z"
       inkscape:label="pazadoresDisfraz"
       sodipodi:nodetypes="cccccccccc" />
  </g>
</svg>
